<svg id="Layer_1" data-name="Layer 1" xmlns="http://www.w3.org/2000/svg" viewBox="0 0 1942.81 525.56"><defs><style>.cls-1,.cls-2,.cls-3,.cls-4,.cls-5,.cls-6{stroke:#000;stroke-miterlimit:10;}.cls-2{fill:#fff;}.cls-3,.cls-4,.cls-5,.cls-6{fill:none;}.cls-3{stroke-width:13px;}.cls-4{stroke-width:3px;}.cls-6{stroke-width:6px;}</style></defs><rect class="cls-1" x="1592.97" y="618.32" width="16" height="31.37" transform="translate(118.59 -495.38) rotate(7.84)"/><rect class="cls-1" x="1586.13" y="648.85" width="7.9" height="130.13" transform="translate(129.38 -493.14) rotate(7.84)"/><rect class="cls-1" x="1571.35" y="778.24" width="15.79" height="28.82" transform="translate(140.02 -490.93) rotate(7.84)"/><path class="cls-2" d="M871.5,693.5" transform="translate(17.19 -283)"/><path class="cls-3" d="M-15.5,766.5s78-21,121-67c45-48.11,65.65-121.58,100-200,15.38-35.12,62-199,169-199s125.22,107.4,149,166c28,69,65.59,275.36,201,281,96,4,145.64-43,195-75,54-35,145-51,212-8,85,54.56,132.16,111.5,228,106,122-7,238-113,299-233,53.69-105.61,13-223-77-227s-119,63-120,147,90,292,254,304c165.75,12.13,154,9,210,10" transform="translate(17.19 -283)"/><path class="cls-4" d="M-15.5,751.5A285.58,285.58,0,0,0,11.89,741c26.89-11.71,67.3-33.35,91.61-65.52,96-127,100.42-391,279-391,80,0,115,58,146,145s80.36,292.09,184,301c93,8,141-35,196-72s155.43-53.84,239-5c77,45,114,107,220,98s207.76-102.25,251-176c34-58,53-96,47-156-6.06-60.6-44-95-93-95-40.8,0-90,34-93,120-3.1,89,80,291,254,303s130,6,187,8" transform="translate(17.19 -283)"/><line class="cls-5" x1="235.69" y1="144.5" x2="235.69" y2="145.5"/><rect class="cls-1" x="391.62" y="18.35" width="16" height="43.47"/><rect class="cls-1" x="436.44" y="337.29" width="8" height="359.03" transform="translate(-123.91 -116.74) rotate(-18.48)"/><rect class="cls-1" x="501.95" y="685.01" width="16" height="79.52" transform="translate(-186.25 -83.98) rotate(-18.48)"/><rect class="cls-1" x="950.34" y="650.44" width="16" height="17.7" transform="translate(-155.7 105.36) rotate(-21.06)"/><rect class="cls-1" x="971.88" y="664.88" width="8" height="79.93" transform="translate(-170.89 114.7) rotate(-21.06)"/><rect class="cls-1" x="985.42" y="741.55" width="16" height="17.7" transform="translate(-186.09 124.05) rotate(-21.06)"/><rect class="cls-1" x="301.62" y="326.36" width="8" height="378.11" transform="translate(254.21 -362.86) rotate(24.09)"/><rect class="cls-1" x="203.36" y="684.35" width="16" height="83.74" transform="translate(332.05 -306.01) rotate(24.09)"/><path class="cls-6" d="M95,788" transform="translate(17.19 -283)"/><line class="cls-6" x1="29.19" y1="458" x2="34.19" y2="470"/><line class="cls-6" x1="51.19" y1="447" x2="55.19" y2="457"/><line class="cls-6" x1="71.19" y1="436" x2="82.19" y2="448"/><line class="cls-6" x1="93.19" y1="420" x2="100.19" y2="430"/><line class="cls-6" x1="107.19" y1="408" x2="116.19" y2="418"/><line class="cls-6" x1="120.19" y1="393" x2="134.19" y2="403"/><line class="cls-6" x1="133.19" y1="374" x2="145.19" y2="382"/><line class="cls-6" x1="144.19" y1="356" x2="157.19" y2="362"/><line class="cls-6" x1="155.19" y1="335" x2="170.19" y2="341"/><line class="cls-6" x1="164.19" y1="315" x2="182.19" y2="322"/><line class="cls-6" x1="175.19" y1="293" x2="187.19" y2="298"/><line class="cls-6" x1="182.19" y1="270" x2="200.19" y2="278"/><line class="cls-6" x1="192.19" y1="246" x2="207.19" y2="254"/><line class="cls-6" x1="200.19" y1="223" x2="217.19" y2="229"/><line class="cls-6" x1="208.19" y1="202" x2="226.19" y2="208"/><line class="cls-6" x1="215.19" y1="183" x2="236.19" y2="189"/><line class="cls-6" x1="222.19" y1="165" x2="241.19" y2="170"/><line class="cls-6" x1="231.19" y1="146" x2="248.19" y2="152"/><line class="cls-6" x1="240.19" y1="125" x2="258.19" y2="130"/><line class="cls-6" x1="254.19" y1="99" x2="266.19" y2="103"/><line class="cls-6" x1="270.19" y1="73" x2="284.19" y2="79"/><line class="cls-6" x1="285.19" y1="54" x2="299.19" y2="62"/><line class="cls-6" x1="301.19" y1="38" x2="313.19" y2="46"/><line class="cls-6" x1="329.19" y1="18" x2="337.19" y2="29"/><line class="cls-6" x1="358.19" y1="7" x2="363.19" y2="18"/><line class="cls-6" x1="384.19" y1="2" x2="386.19" y2="17"/><line class="cls-6" x1="409.19" y1="2" x2="407.19" y2="18"/><line class="cls-6" x1="431.19" y1="5" x2="425.19" y2="22"/><line class="cls-6" x1="455.19" y1="14" x2="448.19" y2="28"/><line class="cls-6" x1="479.19" y1="29" x2="469.19" y2="40"/><line class="cls-6" x1="493.19" y1="44" x2="483.19" y2="52"/><line class="cls-6" x1="508.19" y1="65" x2="498.19" y2="69"/><line class="cls-6" x1="518.19" y1="82" x2="503.19" y2="89"/><line class="cls-6" x1="513.19" y1="109" x2="529.19" y2="104"/><line class="cls-6" x1="536.19" y1="122" x2="523.19" y2="127"/><line class="cls-6" x1="529.19" y1="149" x2="545.19" y2="146"/><line class="cls-6" x1="537.19" y1="170" x2="553.19" y2="167"/><line class="cls-6" x1="545.19" y1="195" x2="560.19" y2="191"/><line class="cls-6" x1="556.19" y1="228" x2="570.19" y2="222"/><line class="cls-6" x1="567.19" y1="263" x2="582.19" y2="257"/><line class="cls-6" x1="574.19" y1="292" x2="593.19" y2="285"/><line class="cls-6" x1="586.19" y1="315" x2="603.19" y2="309"/><line class="cls-6" x1="598.19" y1="341" x2="614.19" y2="334"/><line class="cls-6" x1="616.19" y1="365" x2="624.19" y2="359"/><line class="cls-6" x1="625.19" y1="390" x2="638.19" y2="378"/><line class="cls-6" x1="644.19" y1="412" x2="658.19" y2="405"/><line class="cls-6" x1="665.19" y1="432" x2="674.19" y2="422"/><line class="cls-6" x1="690.19" y1="434" x2="684.19" y2="448"/><line class="cls-6" x1="706.19" y1="458" x2="710.19" y2="443"/><line class="cls-6" x1="726.19" y1="463" x2="729.19" y2="447"/><line class="cls-6" x1="761.19" y1="463" x2="757.19" y2="448"/><line class="cls-6" x1="792.19" y1="460" x2="786.19" y2="446"/><line class="cls-6" x1="814.19" y1="455" x2="811.19" y2="442"/><line class="cls-6" x1="839.19" y1="448" x2="831.19" y2="433"/><line class="cls-6" x1="867.19" y1="435" x2="857.19" y2="421"/><line class="cls-6" x1="891.19" y1="420" x2="881.19" y2="408"/><line class="cls-6" x1="913.19" y1="403" x2="902.19" y2="392"/><line class="cls-6" x1="932.19" y1="389" x2="925.19" y2="375"/><line class="cls-6" x1="960.19" y1="376" x2="950.19" y2="362"/><line class="cls-6" x1="989.19" y1="361" x2="984.19" y2="349"/><line class="cls-6" x1="1023.19" y1="353" x2="1021.19" y2="342"/><line class="cls-6" x1="1055.19" y1="351" x2="1056.19" y2="340"/><line class="cls-6" x1="1087.19" y1="343" x2="1084.19" y2="354"/><line class="cls-6" x1="1117.19" y1="350" x2="1114.19" y2="361"/><line class="cls-6" x1="1145.19" y1="359" x2="1138.19" y2="373"/><line class="cls-6" x1="1164.19" y1="370" x2="1157.19" y2="384"/><line class="cls-6" x1="1188.19" y1="385" x2="1177.19" y2="398"/><line class="cls-6" x1="1207.19" y1="399" x2="1197.19" y2="412"/><line class="cls-6" x1="1228.19" y1="415" x2="1217.19" y2="428"/><line class="cls-6" x1="1252.19" y1="432" x2="1241.19" y2="443"/><line class="cls-6" x1="1277.19" y1="448" x2="1271.19" y2="461"/><line class="cls-6" x1="1303.19" y1="461" x2="1298.19" y2="474"/><line class="cls-6" x1="1328.19" y1="466" x2="1323.19" y2="480"/><line class="cls-6" x1="1355.19" y1="469" x2="1352.19" y2="483"/><line class="cls-6" x1="1378.19" y1="469" x2="1385.19" y2="487"/><line class="cls-6" x1="1408.19" y1="465" x2="1413.19" y2="482"/><line class="cls-6" x1="1433.19" y1="459" x2="1439.19" y2="473"/><line class="cls-6" x1="1457.19" y1="450" x2="1463.19" y2="462"/><line class="cls-6" x1="1479.19" y1="439" x2="1488.19" y2="451"/><line class="cls-6" x1="1499.19" y1="428" x2="1512.19" y2="445"/><line class="cls-6" x1="1519.19" y1="413" x2="1528.19" y2="425"/><line class="cls-6" x1="1545.19" y1="393" x2="1556.19" y2="407"/><line class="cls-6" x1="1587.19" y1="356" x2="1599.19" y2="366"/><line class="cls-6" x1="1603.19" y1="338" x2="1610.19" y2="347"/><line class="cls-6" x1="1577.19" y1="369" x2="1583.19" y2="376"/><line class="cls-6" x1="1618.19" y1="319" x2="1629.19" y2="329"/><line class="cls-6" x1="1633.19" y1="297" x2="1647.19" y2="304"/><line class="cls-6" x1="1643.19" y1="275" x2="1659.19" y2="284"/><line class="cls-6" x1="1655.19" y1="257" x2="1671.19" y2="259"/><line class="cls-6" x1="1665.19" y1="237" x2="1679.19" y2="240"/><line class="cls-6" x1="1674.19" y1="216" x2="1685.19" y2="216"/><line class="cls-6" x1="1681.19" y1="188" x2="1693.19" y2="190"/><line class="cls-6" x1="1685.19" y1="163" x2="1696.19" y2="164"/><line class="cls-6" x1="1683.19" y1="143" x2="1699.19" y2="138"/><line class="cls-6" x1="1681.19" y1="116" x2="1694.19" y2="112"/><line class="cls-6" x1="1669.19" y1="88" x2="1683.19" y2="84"/><line class="cls-6" x1="1653.19" y1="67" x2="1660.19" y2="60"/><line class="cls-6" x1="1640.19" y1="54" x2="1647.19" y2="43"/><line class="cls-6" x1="1614.19" y1="45" x2="1616.19" y2="35"/><line class="cls-6" x1="1589.19" y1="41" x2="1589.19" y2="32"/><line class="cls-6" x1="1544.19" y1="56" x2="1537.19" y2="46"/><line class="cls-6" x1="1565.19" y1="45" x2="1560.19" y2="36"/><line class="cls-6" x1="1530.19" y1="68" x2="1514.19" y2="57"/><line class="cls-6" x1="1511.19" y1="97" x2="1492.19" y2="88"/><line class="cls-6" x1="1503.19" y1="118" x2="1485.19" y2="116"/><line class="cls-6" x1="1497.19" y1="150" x2="1480.19" y2="150"/><line class="cls-6" x1="1497.19" y1="174" x2="1478.19" y2="174"/><line class="cls-6" x1="1499.19" y1="198" x2="1484.19" y2="200"/><line class="cls-6" x1="1487.19" y1="234" x2="1506.19" y2="231"/><line class="cls-6" x1="1515.19" y1="250" x2="1494.19" y2="257"/><line class="cls-6" x1="1504.19" y1="281" x2="1522.19" y2="276"/><line class="cls-6" x1="1531.19" y1="295" x2="1513.19" y2="304"/><line class="cls-6" x1="1530.19" y1="332" x2="1544.19" y2="324"/><line class="cls-6" x1="1544.19" y1="355" x2="1561.19" y2="347"/><line class="cls-6" x1="1557.19" y1="373" x2="1572.19" y2="363"/><line class="cls-6" x1="1586.19" y1="405" x2="1602.19" y2="396"/><line class="cls-6" x1="1613.19" y1="427" x2="1622.19" y2="414"/><line class="cls-6" x1="1630.19" y1="439" x2="1640.19" y2="427"/><line class="cls-6" x1="1653.19" y1="450" x2="1658.19" y2="437"/><line class="cls-6" x1="1680.19" y1="463" x2="1685.19" y2="450"/><line class="cls-6" x1="1706.19" y1="472" x2="1711.19" y2="458"/><line class="cls-6" x1="1742.19" y1="479" x2="1744.19" y2="466"/><line class="cls-6" x1="1774.19" y1="482" x2="1773.19" y2="466"/><line class="cls-6" x1="1813.19" y1="482" x2="1812.19" y2="468"/><line class="cls-6" x1="1845.19" y1="485" x2="1847.19" y2="470"/><line class="cls-6" x1="1879.19" y1="485" x2="1879.19" y2="473"/><line class="cls-6" x1="1903.19" y1="488" x2="1903.19" y2="473"/><line class="cls-6" x1="1928.19" y1="485" x2="1929.19" y2="472"/><rect class="cls-1" x="1115.53" y="660.51" width="16" height="17.7" transform="translate(596.57 -802.87) rotate(34.63)"/><rect class="cls-1" x="1091.79" y="669.56" width="8" height="79.93" transform="translate(614.49 -779.99) rotate(34.63)"/><rect class="cls-1" x="1060.05" y="740.85" width="16" height="17.7" transform="translate(632.4 -757.11) rotate(34.63)"/></svg>