<svg id="Layer_1" data-name="Layer 1" xmlns="http://www.w3.org/2000/svg" viewBox="0 0 396 163"><defs><style>.cls-1,.cls-2{fill:none;stroke:#000;stroke-miterlimit:10;}.cls-1{stroke-width:10px;}.cls-2{stroke-width:18px;}</style></defs><line class="cls-1" x1="11" y1="23" x2="124" y2="23"/><line class="cls-1" x1="268.68" y1="23" x2="383" y2="23"/><path d="M156.47,33.93a33,33,0,0,1-9.89,1.66c-5.4,0-9.26-1.32-11.91-3.84a12.44,12.44,0,0,1-3.82-9.22c0-8.47,6.68-13.77,16.3-13.77a21.23,21.23,0,0,1,8.31,1.41l-1.37,4.89a17.16,17.16,0,0,0-7.15-1.29c-5.45,0-9.55,2.91-9.55,8.26,0,5.13,3.75,8.61,9.45,8.61a10.42,10.42,0,0,0,3.54-.45V24.93h-4.64V20.15h10.73Z"/><path d="M168.13,28.32l-2.09,7H159.5L168.29,9h8.33l9.21,26.29H179l-2.32-7Zm7.47-4.58-1.89-5.62c-.51-1.54-1-3.28-1.47-4.76h-.08c-.42,1.48-.82,3.24-1.29,4.77l-1.77,5.61Z"/><path d="M195.37,14.1h-7.91V9h22.16V14.1h-8V35.32h-6.22Z"/><path d="M239.79,22c0,8.19-5.77,13.8-14.35,13.8C217,35.78,211.7,30,211.7,22.43c0-8.08,5.78-13.87,14.16-13.87C234.51,8.56,239.79,14.29,239.79,22Zm-21.49.28c0,4.88,2.87,8.7,7.46,8.7s7.43-3.75,7.43-8.8c0-4.77-2.75-8.78-7.43-8.78S218.3,17.33,218.3,22.26Z"/><path d="M244,9.38a58.59,58.59,0,0,1,8.67-.58c4.27,0,7.07.65,9,2.12a6.65,6.65,0,0,1,2.55,5.53,6.94,6.94,0,0,1-4.84,6.42V23c1.84.74,2.91,2.51,3.62,4.79.92,3,1.74,6.48,2.27,7.52H258.9a32.31,32.31,0,0,1-2-6.08c-.82-3.29-2-4.15-4.71-4.19h-2.1V35.32H244Zm6.16,11.25h2.79c3.19,0,5.12-1.4,5.12-3.69,0-2.46-1.9-3.57-4.76-3.57a16.37,16.37,0,0,0-3.15.21Z"/><line class="cls-2" x1="60" y1="50" x2="61" y2="139"/><line class="cls-2" x1="11" y1="50" x2="111" y2="50"/><line class="cls-2" x1="129" y1="49" x2="129" y2="137"/><line class="cls-2" x1="192" y1="49" x2="120" y2="49"/><line class="cls-2" x1="192" y1="97" x2="192" y2="40"/><line class="cls-2" x1="155" y1="88" x2="197" y2="88"/><line class="cls-2" x1="209" y1="49" x2="278" y2="49"/><line class="cls-2" x1="209" y1="88" x2="278" y2="88"/><line class="cls-2" x1="287" y1="49" x2="383" y2="49"/><line class="cls-2" x1="374" y1="138" x2="374" y2="50"/><line class="cls-2" x1="290" y1="129" x2="382" y2="129"/><line class="cls-1" x1="15" y1="150" x2="384" y2="150"/><line class="cls-2" x1="209" y1="129" x2="278" y2="129"/></svg>